<svg width="409" height="342" viewBox="0 0 409 342" fill="currentColor" xmlns="http://www.w3.org/2000/svg">
<path d="M43.1723 37.9625C63.0123 68.3925 88.9723 92.9025 117.682 114.972C143.632 134.922 176.192 158.762 208.782 166.072C241.032 173.302 261.822 151.752 281.192 129.492C310.422 95.9025 339.632 62.4625 365.072 25.8825C373.412 13.8925 355.112 0.48246 345.162 10.5225C321.692 34.1925 300.302 59.3925 278.562 84.6225C268.312 96.5225 258.392 109.002 247.482 120.302C231.492 136.862 218.412 138.712 197.692 129.272C143.932 104.782 100.022 66.3325 55.6323 28.3425C49.1923 22.8325 37.9423 29.9425 43.1723 37.9625Z" fill="black"/>
<path d="M24.0123 146.592C51.0223 181.572 80.1122 214.212 111.382 245.442C128.932 262.962 146.732 280.282 165.092 296.952C177.852 308.542 194.242 329.252 211.362 334.142C225.432 338.172 233.902 328.922 243.102 319.592C260.122 302.332 276.352 284.182 292.702 266.292C324.462 231.532 361.722 196.732 385.332 155.732C392.872 142.642 376.232 131.922 365.592 140.502C334.462 165.612 309.732 199.492 282.862 229.032C268.712 244.592 254.442 260.042 240.042 275.382C233.492 282.352 227.292 290.362 220.032 296.542C217.812 298.892 215.582 301.242 213.362 303.602C217.272 298.832 215.522 295.402 208.132 293.302C196.652 279.712 178.662 269.102 164.972 257.632C150.672 245.642 136.542 233.452 122.592 221.052C92.3723 194.202 62.4123 167.092 32.1323 140.312C28.0423 136.682 20.2123 141.662 24.0123 146.592Z" fill="black"/>
</svg>
